<svg xmlns="http://www.w3.org/2000/svg" xmlns:xlink="http://www.w3.org/1999/xlink" viewBox="0 0 1600 1600"><defs><style>.cls-1{fill:url(#Degradado_sin_nombre_73);}.cls-2{fill:#009245;}.cls-3{fill:#fff;}.cls-10,.cls-11,.cls-12,.cls-4,.cls-5,.cls-6,.cls-7,.cls-8,.cls-9{opacity:0.9;}.cls-4{fill:url(#Degradado_sin_nombre_3);}.cls-5{fill:url(#Degradado_sin_nombre_3-2);}.cls-6{fill:url(#Degradado_sin_nombre_3-3);}.cls-7{fill:url(#Degradado_sin_nombre_3-4);}.cls-8{fill:url(#Degradado_sin_nombre_3-5);}.cls-9{fill:url(#Degradado_sin_nombre_61);}.cls-10{fill:url(#Degradado_sin_nombre_61-2);}.cls-11{fill:url(#Degradado_sin_nombre_61-3);}.cls-12{fill:url(#Degradado_sin_nombre_61-4);}</style><linearGradient id="Degradado_sin_nombre_73" x1="799.76" y1="3" x2="799.76" y2="1603.47" gradientUnits="userSpaceOnUse"><stop offset="0" stop-color="#009245"/><stop offset="0.04" stop-color="#069646"/><stop offset="0.24" stop-color="#1ca347"/><stop offset="0.45" stop-color="#2cad49"/><stop offset="0.68" stop-color="#36b34a"/><stop offset="1" stop-color="#39b54a"/></linearGradient><radialGradient id="Degradado_sin_nombre_3" cx="102.92" cy="1057.62" r="91.38" gradientUnits="userSpaceOnUse"><stop offset="0" stop-color="#fff"/><stop offset="0.06" stop-color="#fde6e7"/><stop offset="0.19" stop-color="#f9b1b4"/><stop offset="0.33" stop-color="#f58388"/><stop offset="0.47" stop-color="#f25e64"/><stop offset="0.6" stop-color="#f04148"/><stop offset="0.74" stop-color="#ee2d34"/><stop offset="0.87" stop-color="#ed2028"/><stop offset="1" stop-color="#ed1c24"/></radialGradient><radialGradient id="Degradado_sin_nombre_3-2" cx="468.42" cy="734.76" r="67.01" xlink:href="#Degradado_sin_nombre_3"/><radialGradient id="Degradado_sin_nombre_3-3" cx="804.04" cy="837.64" r="6.16" gradientTransform="translate(-4732.54 -4741.42) scale(6.92)" xlink:href="#Degradado_sin_nombre_3"/><radialGradient id="Degradado_sin_nombre_3-4" cx="163.83" cy="95.13" r="73.1" xlink:href="#Degradado_sin_nombre_3"/><radialGradient id="Degradado_sin_nombre_3-5" cx="797.37" cy="198.69" r="60.92" xlink:href="#Degradado_sin_nombre_3"/><radialGradient id="Degradado_sin_nombre_61" cx="1480.39" cy="670.89" r="89.24" gradientUnits="userSpaceOnUse"><stop offset="0" stop-color="#fff"/><stop offset="0.11" stop-color="#cadef9"/><stop offset="0.24" stop-color="#95bcf4"/><stop offset="0.37" stop-color="#689fef"/><stop offset="0.5" stop-color="#4287eb"/><stop offset="0.63" stop-color="#2575e8"/><stop offset="0.75" stop-color="#1168e6"/><stop offset="0.88" stop-color="#0460e4"/><stop offset="1" stop-color="#005de4"/></radialGradient><radialGradient id="Degradado_sin_nombre_61-2" cx="1369.55" cy="1027.85" r="47.59" xlink:href="#Degradado_sin_nombre_61"/><radialGradient id="Degradado_sin_nombre_61-3" cx="929.3" cy="611.39" r="71.39" xlink:href="#Degradado_sin_nombre_61"/><radialGradient id="Degradado_sin_nombre_61-4" cx="1000.69" cy="1503.8" r="59.49" xlink:href="#Degradado_sin_nombre_61"/></defs><g id="Back"><rect class="cls-1" x="-0.47" y="3" width="1600.47" height="1600.47"/><rect class="cls-2" y="3" width="1600" height="1600"/></g><g id="M"><polygon class="cls-3" points="23.52 1047.85 145.64 258.96 168.39 111.97 246.06 234.78 501.77 639.08 436.5 637.1 753.41 250.62 794.75 200.2 797.66 263.8 833.92 1057.62 748.36 267.6 792.61 280.77 500.35 686.22 468.48 730.43 435.07 684.24 154.71 296.62 255.13 272.44 182.32 1067.4 23.52 1047.85"/><circle class="cls-4" cx="102.92" cy="1057.62" r="91.38"/><circle class="cls-5" cx="468.42" cy="734.76" r="67.01"/><circle class="cls-6" cx="833.92" cy="1057.62" r="42.64"/><circle class="cls-7" cx="163.83" cy="95.13" r="73.1"/><circle class="cls-8" cx="797.37" cy="198.69" r="60.92"/></g><g id="F"><path class="cls-3" d="M1476.64,750.89l-475.95-18.81,61.2-61.19L1029,1503.8l-56.4,3.12-6.37-89.33-1.59-22.33-.79-11.16-.37-5.93c-.11-2-.25-4-.33-6a353.94,353.94,0,0,1,1.26-47.76,332.46,332.46,0,0,1,7.84-46.94c1.8-7.71,4-15.32,6.33-22.86,1.24-3.76,2.45-7.51,3.79-11.22s2.66-7.42,4.17-11.07A336.84,336.84,0,0,1,1099,1086l4.66-3.42,4.74-3.3,2.36-1.65,2.42-1.58,4.82-3.16c6.5-4.1,13.07-8.07,19.83-11.7s13.6-7.07,20.52-10.32,14-6.14,21.16-8.78a322.28,322.28,0,0,1,88.57-19.72,329.78,329.78,0,0,1,45.11-.35c3.74.3,7.48.54,11.21.91l5.58.61,2.79.3,2.79.38,5.55.77c1.86.24,3.69.6,5.54.9l5.52.93,5.51,1-5.57-.57-5.57-.5c-1.86-.14-3.71-.36-5.57-.45l-5.58-.33-2.78-.16-2.79-.08-5.57-.16c-3.72-.08-7.44,0-11.14,0a324.41,324.41,0,0,0-44.21,3.84,312,312,0,0,0-83.91,25.72c-6.62,3.06-13.08,6.46-19.46,9.95s-12.6,7.28-18.65,11.3-12,8.17-17.79,12.49l-4.29,3.33-2.14,1.66-2.1,1.72-4.19,3.44-4.09,3.54a312.06,312.06,0,0,0-56.38,64.77,300,300,0,0,0-20.76,37.26,296.08,296.08,0,0,0-15.27,39.54c-1.09,3.35-2,6.76-2.93,10.14s-1.73,6.82-2.57,10.23c-1.52,6.86-3,13.73-4,20.66a289.73,289.73,0,0,0-3.61,41.73,307.92,307.92,0,0,0,2.2,41.65l1.44,10.37,1.67,11.07,3.35,22.14,13.4,88.54-56.4,3.13L939.5,670.89l-2.32-58.69,63.51-2.51,476-18.8Z"/><circle class="cls-9" cx="1480.39" cy="670.89" r="89.24"/><circle class="cls-10" cx="1369.55" cy="1027.85" r="47.59"/><circle class="cls-11" cx="929.3" cy="611.39" r="71.39"/><circle class="cls-12" cx="1000.69" cy="1503.8" r="59.49"/></g></svg>